<?xml version="1.0" encoding="utf-8"?>
<!-- Generator: Adobe Illustrator 17.0.0, SVG Export Plug-In . SVG Version: 6.00 Build 0)  -->
<!DOCTYPE svg PUBLIC "-//W3C//DTD SVG 1.1//EN" "http://www.w3.org/Graphics/SVG/1.1/DTD/svg11.dtd">
<svg version="1.1" id="Layer_1" xmlns="http://www.w3.org/2000/svg" xmlns:xlink="http://www.w3.org/1999/xlink" x="0px" y="0px"
	 width="64px" height="64px" viewBox="0 0 64 64" enable-background="new 0 0 64 64" xml:space="preserve">
<g>
	<path d="M21.85,28.935h20.207c5.752,0,10.416-4.663,10.416-10.416S47.809,8.104,42.056,8.104H21.85
		c-5.752,0-10.416,4.663-10.416,10.416S16.097,28.935,21.85,28.935z M21.85,11.873c3.671,0,6.647,2.976,6.647,6.647
		s-2.976,6.647-6.647,6.647c-3.671,0-6.647-2.976-6.647-6.647S18.179,11.873,21.85,11.873z"/>
	<path d="M42.15,35.065H21.944c-5.752,0-10.416,4.663-10.416,10.416s4.663,10.416,10.416,10.416H42.15
		c5.752,0,10.416-4.663,10.416-10.416S47.903,35.065,42.15,35.065z M42.15,52.127c-3.671,0-6.647-2.976-6.647-6.647
		s2.976-6.647,6.647-6.647c3.671,0,6.647,2.976,6.647,6.647S45.821,52.127,42.15,52.127z"/>
</g>
</svg>
